<svg id="fi_2592216" enable-background="new 0 0 512 512" height="512" viewBox="0 0 512 512" width="512" xmlns="http://www.w3.org/2000/svg"><g><path d="m512 256c0 68.38-26.63 132.67-74.98 181.02s-112.64 74.98-181.02 74.98-132.67-26.63-181.02-74.98c-48.35-48.35-74.98-112.64-74.98-181.02s26.63-132.67 74.98-181.02 112.64-74.98 181.02-74.98 132.67 26.63 181.02 74.98 74.98 112.64 74.98 181.02z" fill="#fee158"></path><path d="m512 256c0 68.38-26.63 132.67-74.98 181.02s-112.64 74.98-181.02 74.98v-512c68.38 0 132.67 26.63 181.02 74.98s74.98 112.64 74.98 181.02z" fill="#ffb528"></path><circle cx="256" cy="256" fill="#ffb528" r="202"></circle><path d="m458 256c0 111.38-90.62 202-202 202v-404c111.38 0 202 90.62 202 202z" fill="#fe8c01"></path><path d="m332.75 252.88c-3.36-3.36-7.02-6.3-10.91-8.82 9.19-10.31 14.8-23.89 14.8-38.77 0-15.52-6.08-30.16-17.11-41.19-11.04-11.04-25.67-17.12-41.2-17.12h-7.33v-28.98h-30v28.98h-66.04v30h24.5v158.04h-24.5v30h66.04v28.98h30v-28.98h15.33c36.23 0 65.71-29.48 65.71-65.71 0-17.5-6.85-33.99-19.29-46.43zm-103.29-75.9h48.87c7.52 0 14.61 2.96 19.98 8.33s8.33 12.47 8.33 19.98c0 15.46-12.45 28.06-27.85 28.3h-49.33zm56.87 158.04h-56.87v-71.41l26.54-.01 30.33-.01c9.48 0 18.44 3.73 25.21 10.51 6.77 6.77 10.5 15.72 10.5 25.21 0 19.69-16.02 35.71-35.71 35.71z" fill="#fee158"></path><path d="m352.04 299.31c0 36.23-29.48 65.71-65.71 65.71h-15.33v28.98h-15v-58.98h30.33c19.69 0 35.71-16.02 35.71-35.71 0-9.49-3.73-18.44-10.5-25.21-6.77-6.78-15.73-10.51-25.21-10.51l-30.33.01v-30.01h22.79c15.4-.24 27.85-12.84 27.85-28.3 0-7.51-2.96-14.61-8.33-19.98s-12.46-8.33-19.98-8.33h-22.33v-58.98h15v28.98h7.33c15.53 0 30.16 6.08 41.2 17.12 11.03 11.03 17.11 25.67 17.11 41.19 0 14.88-5.61 28.46-14.8 38.77 3.89 2.52 7.55 5.46 10.91 8.82 12.44 12.44 19.29 28.93 19.29 46.43z" fill="#ffb528"></path></g></svg>