<svg version="1.1" id="fi_469371" xmlns="http://www.w3.org/2000/svg" xmlns:xlink="http://www.w3.org/1999/xlink" x="0px" y="0px" viewBox="0 0 512 512" style="enable-background:new 0 0 512 512;" xml:space="preserve">
<g>
	<circle style="fill:#FF3D62;" cx="255.996" cy="255.996" r="255.996"></circle>
	<path style="fill:#FF3D62;" d="M255.999,512c0.067,0,0.133-0.002,0.2-0.002c-0.344,0-0.686-0.006-1.03-0.008
		C255.447,511.991,255.723,512,255.999,512z"></path>
	<path style="fill:#FF3D62;" d="M118.809,403.794c-39.656-36.826-64.479-89.406-64.479-147.793
		c0-111.375,90.287-201.662,201.662-201.662c58.386,0,110.967,24.822,147.794,64.478l106.361,106.361
		C494.922,98.328,386.952,0,255.999,0C114.615,0,0,114.615,0,255.999C0,395.813,112.086,509.432,251.3,511.94
		c-8.852-0.18-17.594-0.808-26.205-1.861L118.809,403.794z"></path>
</g>
<g>
	<path style="fill:#C2001B;" d="M255.17,511.99c-1.293-0.004-2.582-0.026-3.87-0.049C252.587,511.967,253.877,511.983,255.17,511.99
		z"></path>
	<path style="fill:#C2001B;" d="M512,255.999c0-10.434-0.639-20.717-1.854-30.823L403.786,118.816
		c-36.826-39.656-89.406-64.478-147.793-64.478c-111.375,0-201.662,90.287-201.662,201.662c0,58.387,24.822,110.968,64.479,147.793
		l106.286,106.285c8.611,1.053,17.352,1.681,26.205,1.861c1.288,0.023,2.578,0.045,3.87,0.049c0.344,0.002,0.686,0.007,1.03,0.008
		C397.492,511.889,512,397.318,512,255.999z"></path>
</g>
<circle style="fill:#FFFFFF;" cx="255.996" cy="255.996" r="201.662"></circle>
<path style="fill:#E1E1E3;" d="M255.993,54.338c-0.006,0-0.011,0-0.018,0v403.325c0.006,0,0.012,0,0.018,0
	c111.375,0,201.662-90.287,201.662-201.662S367.368,54.338,255.993,54.338z"></path>
<polygon style="fill:#FF3D62;" points="383.298,174.502 337.49,128.695 255.993,210.193 174.495,128.695 128.688,174.502 
	210.186,255.999 128.688,337.498 174.495,383.305 255.993,301.807 337.49,383.305 383.298,337.498 301.801,255.999 "></polygon>
<polygon style="fill:#C2001B;" points="337.49,383.305 383.298,337.498 301.801,255.999 383.298,174.502 337.49,128.695 
	255.993,210.193 255.975,210.175 255.975,301.825 255.993,301.807 "></polygon>
<g>
</g>
<g>
</g>
<g>
</g>
<g>
</g>
<g>
</g>
<g>
</g>
<g>
</g>
<g>
</g>
<g>
</g>
<g>
</g>
<g>
</g>
<g>
</g>
<g>
</g>
<g>
</g>
<g>
</g>
</svg>