<svg id="fi_2724240" enable-background="new 0 0 512 512" height="512" viewBox="0 0 512 512" width="512" xmlns="http://www.w3.org/2000/svg"><g><g><g><g><g><g><g><circle cx="256" cy="256" fill="#ff5f96" r="256"></circle></g></g></g></g></g></g><path d="m510.854 280.383-211.539-211.538-25.802 22.439-22.439-22.439-18.676 58.195 53.837 53.836-136.002 148.871 32.731 32.73-79.757 17.166 131.482 131.482c7.027.58 14.135.875 21.311.875 133.161 0 242.575-101.669 254.854-231.617z" fill="#d72878"></path><g><path d="m379.46 281.991c-29.661 0-53.792-24.131-53.792-53.792s24.131-53.792 53.792-53.792 53.792 24.131 53.792 53.792-24.13 53.792-53.792 53.792zm0-77.584c-13.119 0-23.792 10.673-23.792 23.792s10.673 23.792 23.792 23.792 23.792-10.673 23.792-23.792-10.672-23.792-23.792-23.792z" fill="#cdd2e1"></path></g><g><g><path d="m206.613 85.265c0-13.953 11.311-25.265 25.265-25.265 11.329 0 20.917 7.457 24.122 17.731 3.205-10.274 12.793-17.731 24.122-17.731 13.953 0 25.265 11.311 25.265 25.265 0 27.862-49.387 61.776-49.387 61.776s-49.387-35.567-49.387-61.776z" fill="#ffb9d5"></path></g></g><g><g><path d="m256 147.041s49.387-33.914 49.387-61.776c0-13.953-11.311-25.265-25.265-25.265-11.329 0-20.917 7.457-24.122 17.731z" fill="#ff8fb8"></path></g></g><g><path d="m331.152 342.507h-150.304c-23.809 0-43.11-19.301-43.11-43.11v-140.636h236.524v140.636c0 23.809-19.301 43.11-43.11 43.11z" fill="#fff"></path></g><g><path d="m255.986 158.761v183.746h75.166c23.809 0 43.11-19.301 43.11-43.11v-140.636z" fill="#e9edf5"></path></g><g><path d="m373.538 393.603h-235.076c-28.469 0-51.548-23.079-51.548-51.548v-6.389h338.171v6.389c.001 28.469-23.078 51.548-51.547 51.548z" fill="#e9edf5"></path></g><g><path d="m255.986 335.665v57.937h117.552c28.469 0 51.548-23.079 51.548-51.548v-6.389z" fill="#cdd2e1"></path></g></g></svg>