<svg id="fi_4328573" enable-background="new 0 0 512 512" height="512" viewBox="0 0 512 512" width="512" xmlns="http://www.w3.org/2000/svg"><g><g><g><g><g><g><circle cx="256" cy="256" fill="#7584f2" r="256"></circle></g></g></g></g></g><path d="m276.923 511.157c131.598-10.645 235.077-120.817 235.077-255.157 0-3.947-.09-7.874-.266-11.778l-76.734-76.733-209.44 85.555-30.407-42.136-47.344 6.837-28.641-28.641-30.299 30 28.845 28.845-12.839 23.155-33.062-30-30.299 30 49.677 49.677-2.322 2.322z" fill="#3f51d1"></path><g><path d="m147.512 189.104h108.488v30h-108.488z" fill="#fff"></path></g><g><path d="m88.869 189.104h30.299v30h-30.299z" fill="#fff"></path></g><g><path d="m147.512 293.103h108.488v30h-108.488z" fill="#fff"></path></g><g><path d="m88.869 293.103h30.299v30h-30.299z" fill="#fff"></path></g><g><path d="m104.875 241.104h83.077v30h-83.077z" fill="#fff"></path></g><g><path d="m41.514 241.104h30.299v30h-30.299z" fill="#fff"></path></g><g><path d="m175.605 167.489h259.395v177.23h-259.395z" fill="#ffce00"></path></g><g><path d="m305.033 167.489h129.967v177.23h-129.967z" fill="#fdba12"></path></g><g><path d="m175.605 344.719 129.428-114.698 129.967 114.698z" fill="#ffde55"></path></g><path d="m305.033 230.021v114.571l129.967.127z" fill="#ffce00"></path><g><path d="m435 167.489-129.967 114.451-129.428-114.451z" fill="#fdba12"></path></g><g fill="#ffa300"><path d=""></path><path d="m305.033 167.489v114.451l129.967-114.451z"></path></g></g></svg>