<svg version="1.1" id="fi_295140" xmlns="http://www.w3.org/2000/svg" xmlns:xlink="http://www.w3.org/1999/xlink" x="0px" y="0px" viewBox="0 0 512 512" style="enable-background:new 0 0 512 512;" xml:space="preserve">
<circle style="fill:#FFC61B;" cx="256" cy="256" r="256"></circle>
<path style="fill:#EAA22F;" d="M511.741,267.211L401.317,156.786l-76.36,9.571l-21.837,10.917l-42.496,30.291l63.566,63.566
	l-2.634,2.634l-33.168-33.168l-43.46-6.525l-1.314-1.314h-7.43l-12.938,3.129l-21.059,9.194l-69.158,47.426l-5.572,52.129
	l164.795,164.795C412.85,492.335,506.396,391.213,511.741,267.211z"></path>
<path style="fill:#477F3C;" d="M168.283,363.377c-4.698,0-9.425-0.622-14.081-1.881c-13.843-3.737-25.4-12.643-32.546-25.074
	c-7.146-12.431-9.019-26.9-5.28-40.743c3.737-13.841,12.641-25.4,25.072-32.546l73.65-42.329
	c25.667-14.748,58.539-5.868,73.29,19.79c3.084,5.365,1.234,12.216-4.13,15.3c-5.363,3.081-12.216,1.234-15.3-4.13
	c-8.592-14.951-27.751-20.12-42.691-11.529l-73.652,42.331c-7.24,4.161-12.428,10.893-14.607,18.956
	c-2.177,8.064-1.084,16.491,3.077,23.733c4.162,7.242,10.893,12.429,18.958,14.608c8.061,2.177,16.489,1.086,23.731-3.077
	l73.65-42.329c5.368-3.086,12.216-1.236,15.3,4.13c3.084,5.367,1.234,12.216-4.13,15.3l-73.65,42.329
	C186.696,360.957,177.547,363.377,168.283,363.377z"></path>
<path style="fill:#2E5E24;" d="M291.59,292.509c-4.698,0-9.425-0.622-14.081-1.881c-13.841-3.737-25.4-12.641-32.546-25.073
	c-3.084-5.365-1.234-12.216,4.13-15.3c5.365-3.081,12.216-1.234,15.3,4.13c8.59,14.95,27.745,20.123,42.689,11.529l73.65-42.329
	c7.242-4.162,12.429-10.893,14.608-18.958c2.177-8.063,1.084-16.489-3.077-23.731s-10.893-12.429-18.958-14.608
	c-8.064-2.177-16.493-1.084-23.733,3.077l-73.65,42.329c-5.37,3.084-12.216,1.236-15.3-4.13c-3.084-5.367-1.234-12.216,4.13-15.3
	l73.65-42.329c12.436-7.146,26.907-9.014,40.745-5.28c13.843,3.737,25.4,12.643,32.546,25.074c7.146,12.431,9.019,26.9,5.28,40.743
	c-3.737,13.843-12.643,25.4-25.074,32.546l-73.65,42.329C310.003,290.087,300.856,292.509,291.59,292.509z"></path>
<g>
</g>
<g>
</g>
<g>
</g>
<g>
</g>
<g>
</g>
<g>
</g>
<g>
</g>
<g>
</g>
<g>
</g>
<g>
</g>
<g>
</g>
<g>
</g>
<g>
</g>
<g>
</g>
<g>
</g>
</svg>